<svg width="60" height="20" viewBox="0 0 60 20" fill="none" xmlns="http://www.w3.org/2000/svg">
<g clip-path="url(#clip0_164_1346)">
<path d="M30.0999 3.06399C30.0999 2.12399 30.8919 1.35999 31.8239 1.35999C32.7559 1.35999 33.5479 2.12799 33.5479 3.06399C33.5479 3.99999 32.7839 4.78799 31.8239 4.78799C30.8639 4.78799 30.0999 4.02399 30.0999 3.06399ZM24.9839 1.59998H27.9839V18.4H24.9839V1.59998ZM33.3399 6.39998H30.3159V18.4H33.3399V6.39998ZM55.0799 11.992C57.3559 10.592 58.9039 8.50797 59.5159 6.396H56.4919C55.7039 8.41197 53.8959 9.92797 51.9079 10.572V1.59599H48.8839V18.396H51.9079V13.4C54.2159 13.976 56.0399 15.972 56.6639 18.396H59.7079C59.2439 15.852 57.5039 13.472 55.0799 11.992ZM38.6999 7.74399C39.4919 6.69199 41.0359 6.07999 42.2879 6.07999C44.6239 6.07999 46.5559 7.78799 46.5599 10.368V18.396H43.5359V11.036C43.5359 9.97597 43.0639 8.75197 41.5319 8.75197C39.7319 8.75197 38.6959 10.348 38.6959 12.216V18.404H35.6719V6.40799H38.6999V7.74399Z" fill="black"/>
<path d="M10 20C15.5228 20 20 15.5228 20 10C20 4.47714 15.5228 0 10 0C4.47716 0 0 4.47714 0 10C0 15.5228 4.47716 20 10 20Z" fill="black"/>
<path d="M9.53984 4H6.45581C7.05581 6.508 8.80784 8.65196 10.9998 9.99996C8.80384 11.348 7.05581 13.492 6.45581 16H9.53984C10.3038 13.68 12.4198 11.664 15.0198 11.252V8.74404C12.4158 8.33604 10.2998 6.32 9.53984 4Z" fill="#00D66F"/>
</g>
<defs>
<clipPath id="clip0_164_1346">
<rect width="60" height="20" fill="white"/>
</clipPath>
</defs>
</svg>
