<svg width="78" height="32" viewBox="0 0 78 32" fill="none" xmlns="http://www.w3.org/2000/svg">
<path d="M67.5874 32H9.99701C4.44843 32 0 27.5037 0 22.003V9.99701C0 4.44843 4.49626 0 9.99701 0H67.5874C73.136 0 77.5845 4.49626 77.5845 9.99701V22.003C77.5845 27.5037 73.136 32 67.5874 32Z" fill="#5AFEAE"/>
<path d="M63.6176 10.284L59.6475 25.447V25.4948H62.7566L66.7267 10.3319H63.6176V10.284ZM14.5414 18.8939C14.0631 19.1331 13.5847 19.2287 13.0586 19.2287C11.9584 19.2287 11.3366 19.0374 11.2409 18.1286V18.0807C11.2409 18.0329 11.2409 18.0329 11.2409 17.9851V15.3543V15.0673V13.2018V12.4365V12.1495V10.3797L8.46664 10.7145C10.3321 10.3319 11.3844 8.89688 11.3844 7.41407V6.50525H8.27532V10.7623L8.08398 10.8102V18.6547C8.17965 20.855 9.66246 22.1943 12.0063 22.1943C12.8672 22.1943 13.7761 22.003 14.4936 21.6682L14.5414 18.8939Z" fill="#292929"/>
<path d="M15.0193 9.70996L6.31372 11.0493V13.2496L15.0193 11.9103V9.70996ZM15.0193 12.9626L6.31372 14.3019V16.4065L15.0193 15.0672V12.9626ZM24.7771 13.9671C24.6336 11.5276 23.103 10.0448 20.6157 10.0448C19.1807 10.0448 17.9849 10.6188 17.1717 11.6711C16.3586 12.7234 15.9281 14.2541 15.9281 16.1195C15.9281 17.985 16.3586 19.5156 17.1717 20.568C17.9849 21.6203 19.1807 22.1464 20.6157 22.1464C23.103 22.1464 24.6336 20.7115 24.7771 18.2242V21.9073H27.8862V10.3318L24.7771 10.8101V13.9671ZM24.9684 16.1195C24.9684 18.272 23.8204 19.707 22.0506 19.707C20.233 19.707 19.1329 18.3677 19.1329 16.1195C19.1329 13.8714 20.233 12.5321 22.0506 12.5321C22.9116 12.5321 23.677 12.8669 24.2031 13.5366C24.6814 14.1584 24.9684 15.0672 24.9684 16.1195ZM36.9266 10.0448C34.4393 10.0448 32.9086 11.4798 32.7651 13.9671V6.93567L29.656 7.41399V21.9073H32.7651V18.2242C32.9086 20.7115 34.4393 22.1464 36.9266 22.1464C39.8444 22.1464 41.6142 19.8983 41.6142 16.1195C41.6142 12.3408 39.8444 10.0448 36.9266 10.0448ZM35.5394 19.707C33.7696 19.707 32.6216 18.3198 32.6216 16.1195C32.6216 15.0672 32.9086 14.1584 33.387 13.5366C33.9131 12.8669 34.6306 12.5321 35.5394 12.5321C37.3571 12.5321 38.4572 13.8714 38.4572 16.1195C38.4572 18.3677 37.3571 19.707 35.5394 19.707ZM50.0327 10.0448C47.5454 10.0448 46.0148 11.4798 45.8713 13.9671V6.93567L42.7622 7.41399V21.9073H45.8713V18.2242C46.0148 20.7115 47.5454 22.1464 50.0327 22.1464C52.9505 22.1464 54.7203 19.8983 54.7203 16.1195C54.7203 12.3408 52.9505 10.0448 50.0327 10.0448ZM48.6456 19.707C46.8758 19.707 45.7278 18.3198 45.7278 16.1195C45.7278 15.0672 46.0148 14.1584 46.4931 13.5366C47.0193 12.8669 47.7367 12.5321 48.6456 12.5321C50.4632 12.5321 51.5633 13.8714 51.5633 16.1195C51.5633 18.3677 50.4632 19.707 48.6456 19.707ZM54.7203 10.284H58.0207L60.6994 21.9073H57.7338L54.7203 10.284ZM69.2614 11.4798V10.5709H68.8787V10.3796H69.8832V10.5709H69.5006V11.4798H69.2614ZM69.9311 11.4798V10.3318H70.3137L70.5051 10.8579C70.5529 11.0014 70.6007 11.0493 70.6007 11.0971C70.6007 11.0493 70.6486 11.0014 70.6964 10.8579L70.8877 10.3318H71.2704V11.4798H71.0312V10.5709L70.6964 11.4798H70.4572L70.1702 10.5709V11.4798H69.9311Z" fill="#292929"/>
</svg>
