<svg width="163" height="40" viewBox="0 0 163 40" fill="none" xmlns="http://www.w3.org/2000/svg">
<path d="M42.824 14.1748H59.3074V17.2434H52.8172V34.5414H49.2599V17.2434H42.7969L42.824 14.1748ZM58.6014 19.796H61.6428V22.6473H61.6971C61.8057 22.24 61.9958 21.8598 62.2674 21.4796C62.5389 21.0995 62.8648 20.7464 63.2721 20.4477C63.6523 20.1218 64.0868 19.8775 64.5756 19.6874C65.0372 19.4973 65.526 19.3887 66.0148 19.3887C66.395 19.3887 66.6665 19.4158 66.8023 19.4158C66.9381 19.443 67.101 19.4701 67.2368 19.4701V22.593C67.0196 22.5387 66.7752 22.5115 66.5308 22.4844C66.2864 22.4572 66.0691 22.4301 65.8247 22.4301C65.2816 22.4301 64.7657 22.5387 64.2769 22.7559C63.7881 22.9732 63.3807 23.299 63.0006 23.7064C62.6475 24.1409 62.3488 24.6568 62.1316 25.2814C61.9143 25.906 61.8057 26.6392 61.8057 27.4538V34.4599H58.5471L58.6014 19.796ZM82.1723 34.5414H78.968V32.4776H78.9137C78.5063 33.238 77.9089 33.8082 77.1214 34.2699C76.3339 34.7315 75.5192 34.9488 74.7046 34.9488C72.7765 34.9488 71.3644 34.4871 70.4955 33.5095C69.6265 32.5591 69.192 31.0927 69.192 29.1646V19.796H72.4507V28.8388C72.4507 30.1422 72.6951 31.0655 73.211 31.5815C73.6998 32.1246 74.4059 32.3961 75.302 32.3961C75.9809 32.3961 76.5511 32.2875 77.0128 32.0703C77.4744 31.853 77.8546 31.5815 78.1262 31.2284C78.4249 30.8754 78.615 30.4409 78.7507 29.9521C78.8865 29.4633 78.9408 28.9202 78.9408 28.35V19.796H82.1995V34.5414H82.1723ZM87.712 29.8164C87.8207 30.7668 88.1737 31.4185 88.7983 31.8259C89.4228 32.206 90.1832 32.3961 91.0522 32.3961C91.3509 32.3961 91.7039 32.369 92.0841 32.3147C92.4643 32.2604 92.8444 32.1789 93.1703 32.0431C93.5233 31.9073 93.7949 31.7172 94.0121 31.4457C94.2294 31.1741 94.338 30.8483 94.3108 30.4409C94.2837 30.0336 94.1479 29.6806 93.8492 29.409C93.5505 29.1375 93.1975 28.9474 92.763 28.7573C92.3285 28.5944 91.8125 28.4586 91.2423 28.35C90.672 28.2413 90.1017 28.1056 89.5043 27.9698C88.9069 27.834 88.3095 27.6711 87.7392 27.481C87.1689 27.2909 86.6801 27.0465 86.2185 26.6935C85.784 26.3676 85.4038 25.9603 85.1594 25.4443C84.8879 24.9284 84.7521 24.3309 84.7521 23.5706C84.7521 22.7559 84.9422 22.1042 85.3495 21.5611C85.7297 21.018 86.2456 20.5835 86.8431 20.2576C87.4405 19.9318 88.1194 19.6874 88.8526 19.5516C89.5858 19.4158 90.2918 19.3615 90.9435 19.3615C91.7039 19.3615 92.4371 19.443 93.116 19.6059C93.7949 19.7688 94.4466 20.0132 94.9897 20.3934C95.56 20.7464 96.0216 21.2352 96.3746 21.8055C96.7548 22.3758 96.9721 23.0818 97.0807 23.8965H93.6863C93.5233 23.109 93.1703 22.593 92.6272 22.3215C92.0569 22.0499 91.4324 21.9141 90.6992 21.9141C90.4819 21.9141 90.1832 21.9413 89.8845 21.9684C89.5586 22.0227 89.2871 22.0771 88.9884 22.1857C88.7168 22.2943 88.4724 22.4572 88.2823 22.6473C88.0922 22.8374 87.9836 23.109 87.9836 23.4348C87.9836 23.8422 88.1194 24.1409 88.3909 24.3853C88.6625 24.6297 89.0155 24.8198 89.4772 25.0098C89.9116 25.1728 90.4276 25.3086 90.9979 25.4172C91.5681 25.5258 92.1655 25.6616 92.763 25.7973C93.3604 25.9331 93.9307 26.0961 94.5009 26.2861C95.0712 26.4762 95.5871 26.7206 96.0216 27.0737C96.4561 27.3995 96.8363 27.8069 97.1078 28.2957C97.3794 28.7845 97.5152 29.409 97.5152 30.1151C97.5152 30.984 97.3251 31.7172 96.9178 32.3418C96.5104 32.9392 95.9945 33.4552 95.3699 33.8354C94.7453 34.2156 94.0121 34.4871 93.2518 34.6772C92.4643 34.8401 91.7039 34.9488 90.9435 34.9488C90.0203 34.9488 89.1513 34.8401 88.3638 34.6229C87.5763 34.4056 86.8702 34.0798 86.3 33.6724C85.7297 33.238 85.2681 32.722 84.9422 32.0703C84.6163 31.4457 84.4262 30.6853 84.3991 29.7892H87.6849V29.8164H87.712ZM98.4385 19.796H100.91V15.3425H104.168V19.7688H107.101V22.1857H104.168V30.0608C104.168 30.4138 104.195 30.6853 104.223 30.9569C104.25 31.2013 104.331 31.4185 104.413 31.5815C104.521 31.7444 104.684 31.8802 104.874 31.9616C105.092 32.0431 105.363 32.0974 105.743 32.0974C105.961 32.0974 106.205 32.0974 106.422 32.0703C106.639 32.0431 106.884 32.016 107.101 31.9616V34.4871C106.748 34.5414 106.395 34.5686 106.042 34.5957C105.689 34.65 105.363 34.65 104.983 34.65C104.114 34.65 103.435 34.5686 102.919 34.4056C102.403 34.2427 101.996 33.9983 101.697 33.6996C101.398 33.3737 101.208 32.9935 101.1 32.5319C100.991 32.0703 100.937 31.5 100.91 30.9026V22.2128H98.4385V19.7417V19.796ZM109.382 19.796H112.451V21.8055H112.505C112.967 20.9365 113.591 20.3391 114.406 19.9589C115.221 19.5787 116.09 19.3887 117.067 19.3887C118.235 19.3887 119.24 19.5787 120.109 20.0132C120.978 20.4206 121.684 20.9637 122.254 21.6969C122.824 22.4029 123.259 23.2447 123.53 24.1952C123.802 25.1456 123.965 26.1775 123.965 27.2366C123.965 28.2413 123.829 29.1918 123.584 30.1151C123.313 31.0384 122.933 31.8802 122.417 32.5862C121.901 33.2923 121.249 33.8625 120.434 34.297C119.62 34.7315 118.696 34.9488 117.61 34.9488C117.149 34.9488 116.66 34.8944 116.198 34.813C115.737 34.7315 115.275 34.5957 114.84 34.4056C114.406 34.2156 113.999 33.9712 113.646 33.6724C113.265 33.3737 112.967 33.0207 112.722 32.6405H112.668V39.9997H109.409V19.796H109.382ZM120.76 27.1823C120.76 26.5305 120.679 25.8788 120.489 25.2542C120.326 24.6297 120.054 24.0866 119.701 23.5978C119.348 23.109 118.914 22.7288 118.425 22.4301C117.909 22.1314 117.312 21.9956 116.66 21.9956C115.302 21.9956 114.27 22.4572 113.564 23.4077C112.885 24.3581 112.532 25.6344 112.532 27.2094C112.532 27.9698 112.614 28.6487 112.804 29.2732C112.994 29.8978 113.238 30.4409 113.618 30.9026C113.971 31.3642 114.406 31.7172 114.922 31.9888C115.438 32.2604 116.008 32.3961 116.687 32.3961C117.447 32.3961 118.045 32.2332 118.561 31.9345C119.077 31.6358 119.484 31.2284 119.837 30.7668C120.163 30.278 120.407 29.7349 120.543 29.1103C120.679 28.4586 120.76 27.834 120.76 27.1823ZM126.49 14.1748H129.749V17.2434H126.49V14.1748ZM126.49 19.796H129.749V34.5414H126.49V19.796ZM132.654 14.1748H135.913V34.5414H132.654V14.1748ZM145.852 34.9488C144.684 34.9488 143.625 34.7587 142.702 34.3513C141.779 33.944 141.018 33.428 140.367 32.7492C139.742 32.0703 139.253 31.2284 138.927 30.278C138.601 29.3276 138.411 28.2685 138.411 27.1551C138.411 26.0417 138.574 25.0098 138.927 24.0594C139.253 23.109 139.742 22.2943 140.367 21.5882C140.991 20.9094 141.779 20.3663 142.702 19.9861C143.625 19.6059 144.684 19.3887 145.852 19.3887C147.02 19.3887 148.079 19.5787 149.002 19.9861C149.925 20.3663 150.686 20.9094 151.337 21.5882C151.962 22.2671 152.451 23.109 152.777 24.0594C153.102 25.0098 153.293 26.0417 153.293 27.1551C153.293 28.2957 153.13 29.3276 152.777 30.278C152.424 31.2284 151.962 32.0431 151.337 32.7492C150.713 33.428 149.925 33.9712 149.002 34.3513C148.079 34.7315 147.047 34.9488 145.852 34.9488ZM145.852 32.369C146.558 32.369 147.21 32.206 147.726 31.9073C148.269 31.6086 148.676 31.2013 149.029 30.7125C149.382 30.2237 149.627 29.6534 149.789 29.056C149.952 28.4314 150.034 27.8069 150.034 27.1551C150.034 26.5305 149.952 25.906 149.789 25.2814C149.627 24.6568 149.382 24.1137 149.029 23.6249C148.676 23.1361 148.242 22.7559 147.726 22.4572C147.183 22.1585 146.558 21.9956 145.852 21.9956C145.146 21.9956 144.494 22.1585 143.978 22.4572C143.435 22.7559 143.028 23.1633 142.675 23.6249C142.322 24.1137 142.077 24.6568 141.914 25.2814C141.751 25.906 141.67 26.5305 141.67 27.1551C141.67 27.8069 141.751 28.4314 141.914 29.056C142.077 29.6806 142.322 30.2237 142.675 30.7125C143.028 31.2013 143.462 31.6086 143.978 31.9073C144.521 32.2332 145.146 32.369 145.852 32.369ZM154.27 19.796H156.741V15.3425H160V19.7688H162.933V22.1857H160V30.0608C160 30.4138 160.027 30.6853 160.054 30.9569C160.081 31.2013 160.163 31.4185 160.244 31.5815C160.353 31.7444 160.516 31.8802 160.706 31.9616C160.923 32.0431 161.195 32.0974 161.575 32.0974C161.792 32.0974 162.037 32.0974 162.254 32.0703C162.471 32.0431 162.715 32.016 162.933 31.9616V34.4871C162.58 34.5414 162.227 34.5686 161.874 34.5957C161.521 34.65 161.195 34.65 160.815 34.65C159.946 34.65 159.267 34.5686 158.751 34.4056C158.235 34.2427 157.828 33.9983 157.529 33.6996C157.23 33.3737 157.04 32.9935 156.931 32.5319C156.823 32.0703 156.768 31.5 156.741 30.9026V22.2128H154.27V19.7417V19.796Z" fill="white"/>
<path d="M39.0224 14.1752H24.1141L19.5248 0L14.9084 14.1752L0 14.148L12.057 22.9192L7.4406 37.0944L19.4976 28.3232L31.5547 37.0944L26.9654 22.9192L39.0224 14.1752Z" fill="#00B67A"/>
<path d="M27.9974 26.1233L26.9655 22.9189L19.5249 28.3229L27.9974 26.1233Z" fill="#005128"/>
</svg>
