<svg width="24" height="24" viewBox="0 0 24 24" fill="none" xmlns="http://www.w3.org/2000/svg">
<g opacity="0.5">
<path d="M19.6178 21.25C19.6178 17.648 15.6018 14.72 11.9998 14.72C8.39784 14.72 4.38184 17.648 4.38184 21.25M11.9998 11.456C13.1543 11.456 14.2615 10.9974 15.0779 10.181C15.8942 9.36469 16.3528 8.25749 16.3528 7.103C16.3528 5.94851 15.8942 4.84131 15.0779 4.02496C14.2615 3.20862 13.1543 2.75 11.9998 2.75C10.8453 2.75 9.73815 3.20862 8.9218 4.02496C8.10545 4.84131 7.64684 5.94851 7.64684 7.103C7.64684 8.25749 8.10545 9.36469 8.9218 10.181C9.73815 10.9974 10.8453 11.456 11.9998 11.456Z" stroke="#222222" stroke-width="1.5" stroke-linecap="round" stroke-linejoin="round"/>
</g>
</svg>
